<mxfile host="app.diagrams.net" modified="2021-05-10T00:23:41.100Z" agent="5.0 (Macintosh; Intel Mac OS X 10_15_6) AppleWebKit/537.36 (KHTML, like Gecko) Chrome/90.0.4430.93 Safari/537.36" etag="E3gLmtsWVuQqH2H6LWhh" version="14.6.11" type="github">
  <diagram id="5FLS-WimWuLAqGJWE2_i" name="第 1 页">
    <mxGraphModel dx="804" dy="402" grid="1" gridSize="10" guides="1" tooltips="1" connect="1" arrows="1" fold="1" page="1" pageScale="1" pageWidth="827" pageHeight="1169" math="0" shadow="0">
      <root>
        <mxCell id="0" />
        <mxCell id="1" parent="0" />
        <mxCell id="Q5cpwe_JN1_Joh6aM06c-1" value="用户表" style="whiteSpace=wrap;html=1;align=center;strokeWidth=2;fontSize=15;" parent="1" vertex="1">
          <mxGeometry x="250" y="230" width="100" height="40" as="geometry" />
        </mxCell>
        <mxCell id="Q5cpwe_JN1_Joh6aM06c-3" value="用户id" style="ellipse;whiteSpace=wrap;html=1;align=center;strokeWidth=2;fontSize=15;" parent="1" vertex="1">
          <mxGeometry x="350" y="120" width="100" height="40" as="geometry" />
        </mxCell>
        <mxCell id="Q5cpwe_JN1_Joh6aM06c-4" value="联系电话" style="ellipse;whiteSpace=wrap;html=1;align=center;strokeWidth=2;fontSize=15;" parent="1" vertex="1">
          <mxGeometry x="110" y="190" width="100" height="40" as="geometry" />
        </mxCell>
        <mxCell id="Q5cpwe_JN1_Joh6aM06c-5" value="用户名" style="ellipse;whiteSpace=wrap;html=1;align=center;strokeWidth=2;fontSize=15;" parent="1" vertex="1">
          <mxGeometry x="260" y="370" width="100" height="40" as="geometry" />
        </mxCell>
        <mxCell id="Q5cpwe_JN1_Joh6aM06c-6" value="密码" style="ellipse;whiteSpace=wrap;html=1;align=center;strokeWidth=2;fontSize=15;" parent="1" vertex="1">
          <mxGeometry x="360" y="330" width="100" height="40" as="geometry" />
        </mxCell>
        <mxCell id="Q5cpwe_JN1_Joh6aM06c-7" value="描述" style="ellipse;whiteSpace=wrap;html=1;align=center;strokeWidth=2;fontSize=15;" parent="1" vertex="1">
          <mxGeometry x="380" y="270" width="100" height="40" as="geometry" />
        </mxCell>
        <mxCell id="Q5cpwe_JN1_Joh6aM06c-8" value="姓名" style="ellipse;whiteSpace=wrap;html=1;align=center;strokeWidth=2;fontSize=15;" parent="1" vertex="1">
          <mxGeometry x="140" y="120" width="100" height="40" as="geometry" />
        </mxCell>
        <mxCell id="Q5cpwe_JN1_Joh6aM06c-9" value="是否启用" style="ellipse;whiteSpace=wrap;html=1;align=center;strokeWidth=2;fontSize=15;" parent="1" vertex="1">
          <mxGeometry x="110" y="270" width="100" height="40" as="geometry" />
        </mxCell>
        <mxCell id="Q5cpwe_JN1_Joh6aM06c-10" value="头像" style="ellipse;whiteSpace=wrap;html=1;align=center;strokeWidth=2;fontSize=15;" parent="1" vertex="1">
          <mxGeometry x="150" y="350" width="100" height="40" as="geometry" />
        </mxCell>
        <mxCell id="Q5cpwe_JN1_Joh6aM06c-11" value="住宅号码" style="ellipse;whiteSpace=wrap;html=1;align=center;strokeWidth=2;fontSize=15;" parent="1" vertex="1">
          <mxGeometry x="240" y="90" width="100" height="40" as="geometry" />
        </mxCell>
        <mxCell id="Q5cpwe_JN1_Joh6aM06c-12" value="手机号" style="ellipse;whiteSpace=wrap;html=1;align=center;strokeWidth=2;fontSize=15;" parent="1" vertex="1">
          <mxGeometry x="400" y="190" width="100" height="40" as="geometry" />
        </mxCell>
        <mxCell id="Q5cpwe_JN1_Joh6aM06c-13" value="" style="endArrow=none;html=1;rounded=0;fontSize=15;strokeWidth=2;entryX=0.5;entryY=0;entryDx=0;entryDy=0;" parent="1" source="Q5cpwe_JN1_Joh6aM06c-11" target="Q5cpwe_JN1_Joh6aM06c-1" edge="1">
          <mxGeometry relative="1" as="geometry">
            <mxPoint x="110" y="60" as="sourcePoint" />
            <mxPoint x="270" y="60" as="targetPoint" />
          </mxGeometry>
        </mxCell>
        <mxCell id="Q5cpwe_JN1_Joh6aM06c-14" value="" style="endArrow=none;html=1;rounded=0;fontSize=15;strokeWidth=2;entryX=0.75;entryY=0;entryDx=0;entryDy=0;exitX=0;exitY=1;exitDx=0;exitDy=0;" parent="1" source="Q5cpwe_JN1_Joh6aM06c-3" target="Q5cpwe_JN1_Joh6aM06c-1" edge="1">
          <mxGeometry relative="1" as="geometry">
            <mxPoint x="301.66574151163195" y="139.9888981395834" as="sourcePoint" />
            <mxPoint x="310" y="240" as="targetPoint" />
          </mxGeometry>
        </mxCell>
        <mxCell id="Q5cpwe_JN1_Joh6aM06c-15" value="" style="endArrow=none;html=1;rounded=0;fontSize=15;strokeWidth=2;entryX=0;entryY=0.5;entryDx=0;entryDy=0;exitX=1;exitY=0.25;exitDx=0;exitDy=0;" parent="1" source="Q5cpwe_JN1_Joh6aM06c-1" target="Q5cpwe_JN1_Joh6aM06c-12" edge="1">
          <mxGeometry relative="1" as="geometry">
            <mxPoint x="311.66574151163195" y="149.9888981395834" as="sourcePoint" />
            <mxPoint x="320" y="250" as="targetPoint" />
          </mxGeometry>
        </mxCell>
        <mxCell id="Q5cpwe_JN1_Joh6aM06c-16" value="" style="endArrow=none;html=1;rounded=0;fontSize=15;strokeWidth=2;entryX=0;entryY=0;entryDx=0;entryDy=0;exitX=1;exitY=0.75;exitDx=0;exitDy=0;" parent="1" source="Q5cpwe_JN1_Joh6aM06c-1" target="Q5cpwe_JN1_Joh6aM06c-7" edge="1">
          <mxGeometry relative="1" as="geometry">
            <mxPoint x="321.66574151163195" y="159.9888981395834" as="sourcePoint" />
            <mxPoint x="330" y="260" as="targetPoint" />
          </mxGeometry>
        </mxCell>
        <mxCell id="Q5cpwe_JN1_Joh6aM06c-17" value="" style="endArrow=none;html=1;rounded=0;fontSize=15;strokeWidth=2;entryX=0;entryY=0;entryDx=0;entryDy=0;exitX=0.75;exitY=1;exitDx=0;exitDy=0;" parent="1" source="Q5cpwe_JN1_Joh6aM06c-1" target="Q5cpwe_JN1_Joh6aM06c-6" edge="1">
          <mxGeometry relative="1" as="geometry">
            <mxPoint x="331.66574151163195" y="169.9888981395834" as="sourcePoint" />
            <mxPoint x="340" y="270" as="targetPoint" />
          </mxGeometry>
        </mxCell>
        <mxCell id="Q5cpwe_JN1_Joh6aM06c-18" value="" style="endArrow=none;html=1;rounded=0;fontSize=15;strokeWidth=2;entryX=0.5;entryY=0;entryDx=0;entryDy=0;exitX=0.5;exitY=1;exitDx=0;exitDy=0;" parent="1" source="Q5cpwe_JN1_Joh6aM06c-1" target="Q5cpwe_JN1_Joh6aM06c-5" edge="1">
          <mxGeometry relative="1" as="geometry">
            <mxPoint x="341.66574151163195" y="179.9888981395834" as="sourcePoint" />
            <mxPoint x="350" y="280" as="targetPoint" />
          </mxGeometry>
        </mxCell>
        <mxCell id="Q5cpwe_JN1_Joh6aM06c-19" value="" style="endArrow=none;html=1;rounded=0;fontSize=15;strokeWidth=2;entryX=0;entryY=0.25;entryDx=0;entryDy=0;exitX=1;exitY=0.5;exitDx=0;exitDy=0;" parent="1" source="Q5cpwe_JN1_Joh6aM06c-4" target="Q5cpwe_JN1_Joh6aM06c-1" edge="1">
          <mxGeometry relative="1" as="geometry">
            <mxPoint x="301.66574151163195" y="139.9888981395834" as="sourcePoint" />
            <mxPoint x="310" y="240" as="targetPoint" />
          </mxGeometry>
        </mxCell>
        <mxCell id="Q5cpwe_JN1_Joh6aM06c-20" value="" style="endArrow=none;html=1;rounded=0;fontSize=15;strokeWidth=2;entryX=0.25;entryY=0;entryDx=0;entryDy=0;exitX=1;exitY=1;exitDx=0;exitDy=0;" parent="1" source="Q5cpwe_JN1_Joh6aM06c-8" target="Q5cpwe_JN1_Joh6aM06c-1" edge="1">
          <mxGeometry relative="1" as="geometry">
            <mxPoint x="311.66574151163195" y="149.9888981395834" as="sourcePoint" />
            <mxPoint x="320" y="250" as="targetPoint" />
          </mxGeometry>
        </mxCell>
        <mxCell id="Q5cpwe_JN1_Joh6aM06c-21" value="" style="endArrow=none;html=1;rounded=0;fontSize=15;strokeWidth=2;entryX=0;entryY=0.75;entryDx=0;entryDy=0;exitX=1;exitY=0;exitDx=0;exitDy=0;" parent="1" source="Q5cpwe_JN1_Joh6aM06c-9" target="Q5cpwe_JN1_Joh6aM06c-1" edge="1">
          <mxGeometry relative="1" as="geometry">
            <mxPoint x="321.66574151163195" y="159.9888981395834" as="sourcePoint" />
            <mxPoint x="330" y="260" as="targetPoint" />
          </mxGeometry>
        </mxCell>
        <mxCell id="Q5cpwe_JN1_Joh6aM06c-22" value="" style="endArrow=none;html=1;rounded=0;fontSize=15;strokeWidth=2;entryX=0.5;entryY=0;entryDx=0;entryDy=0;exitX=0.25;exitY=1;exitDx=0;exitDy=0;" parent="1" source="Q5cpwe_JN1_Joh6aM06c-1" target="Q5cpwe_JN1_Joh6aM06c-10" edge="1">
          <mxGeometry relative="1" as="geometry">
            <mxPoint x="331.66574151163195" y="169.9888981395834" as="sourcePoint" />
            <mxPoint x="340" y="270" as="targetPoint" />
          </mxGeometry>
        </mxCell>
      </root>
    </mxGraphModel>
  </diagram>
</mxfile>
